<mxfile host="65bd71144e">
    <diagram id="5AL6RIAYI-PswP0iIX90" name="Page-1">
        <mxGraphModel dx="2009" dy="698" grid="1" gridSize="10" guides="1" tooltips="1" connect="1" arrows="1" fold="1" page="1" pageScale="1" pageWidth="827" pageHeight="1169" math="0" shadow="0">
            <root>
                <mxCell id="0"/>
                <mxCell id="1" parent="0"/>
                <mxCell id="2" value="&lt;h1 style=&quot;margin-top: 0px;&quot;&gt;Goals&lt;/h1&gt;&lt;div&gt;1. Mutation that creates order returns only once order is created: achieved via req that gets res after persistence of order&lt;/div&gt;&lt;div&gt;&lt;br&gt;&lt;/div&gt;&lt;div&gt;2. After order is created, payment is eventually processed: achieved by publishing event after persistence of order, with state for published in case of crashes&lt;/div&gt;&lt;div&gt;&lt;br&gt;&lt;/div&gt;&lt;div&gt;3. OrderCreated event never happens before corresponding order can be read from DB: achieved by ordering: first persist, then publish&lt;/div&gt;&lt;div&gt;&lt;br&gt;&lt;/div&gt;&lt;div&gt;4. PaymentProcessed/PaymentFailed events never happen before state of the order in DB can be read: same pattern as in 2-3&lt;/div&gt;&lt;div&gt;&lt;br&gt;&lt;/div&gt;&lt;div&gt;5. Gateway subscribers never miss a message as long as they are connected, meaning WS connection looks not broken&lt;/div&gt;&lt;div&gt;&lt;br&gt;&lt;/div&gt;" style="text;html=1;whiteSpace=wrap;overflow=hidden;rounded=0;" parent="1" vertex="1">
                    <mxGeometry x="110" y="20" width="450" height="300" as="geometry"/>
                </mxCell>
                <mxCell id="16" value="1" style="edgeStyle=none;html=1;entryX=0;entryY=0.5;entryDx=0;entryDy=0;" parent="1" source="3" target="14" edge="1">
                    <mxGeometry relative="1" as="geometry"/>
                </mxCell>
                <mxCell id="3" value="graphql-gateway" style="rounded=0;whiteSpace=wrap;html=1;" parent="1" vertex="1">
                    <mxGeometry x="120" y="400" width="120" height="60" as="geometry"/>
                </mxCell>
                <mxCell id="25" style="edgeStyle=none;html=1;entryX=1;entryY=0.75;entryDx=0;entryDy=0;" parent="1" source="4" target="14" edge="1">
                    <mxGeometry relative="1" as="geometry"/>
                </mxCell>
                <mxCell id="26" value="4" style="edgeLabel;html=1;align=center;verticalAlign=middle;resizable=0;points=[];" parent="25" vertex="1" connectable="0">
                    <mxGeometry x="-0.2578" y="5" relative="1" as="geometry">
                        <mxPoint x="-1" as="offset"/>
                    </mxGeometry>
                </mxCell>
                <mxCell id="27" style="edgeStyle=none;html=1;entryX=0.5;entryY=0;entryDx=0;entryDy=0;" parent="1" source="4" target="11" edge="1">
                    <mxGeometry relative="1" as="geometry">
                        <mxPoint x="510" y="545" as="targetPoint"/>
                    </mxGeometry>
                </mxCell>
                <mxCell id="28" value="5" style="edgeLabel;html=1;align=center;verticalAlign=middle;resizable=0;points=[];" parent="27" vertex="1" connectable="0">
                    <mxGeometry x="-0.0853" y="8" relative="1" as="geometry">
                        <mxPoint x="-1" as="offset"/>
                    </mxGeometry>
                </mxCell>
                <mxCell id="43" style="edgeStyle=none;html=1;entryX=1;entryY=0.5;entryDx=0;entryDy=0;" parent="1" source="4" target="8" edge="1">
                    <mxGeometry relative="1" as="geometry"/>
                </mxCell>
                <mxCell id="44" value="6" style="edgeLabel;html=1;align=center;verticalAlign=middle;resizable=0;points=[];" parent="43" vertex="1" connectable="0">
                    <mxGeometry x="0.1191" relative="1" as="geometry">
                        <mxPoint x="-1" as="offset"/>
                    </mxGeometry>
                </mxCell>
                <mxCell id="4" value="orders-service" style="rounded=0;whiteSpace=wrap;html=1;" parent="1" vertex="1">
                    <mxGeometry x="640" y="390" width="120" height="60" as="geometry"/>
                </mxCell>
                <mxCell id="5" value="payments-service" style="rounded=0;whiteSpace=wrap;html=1;" parent="1" vertex="1">
                    <mxGeometry x="400" y="960" width="120" height="60" as="geometry"/>
                </mxCell>
                <mxCell id="10" style="edgeStyle=none;html=1;" parent="1" source="8" target="3" edge="1">
                    <mxGeometry relative="1" as="geometry"/>
                </mxCell>
                <mxCell id="8" value="events.orders.gateway&lt;div&gt;&lt;br&gt;&lt;/div&gt;&lt;div&gt;durable: false&lt;/div&gt;" style="rounded=0;whiteSpace=wrap;html=1;" parent="1" vertex="1">
                    <mxGeometry x="90" y="540" width="180" height="60" as="geometry"/>
                </mxCell>
                <mxCell id="13" style="edgeStyle=none;html=1;" parent="1" source="11" target="5" edge="1">
                    <mxGeometry relative="1" as="geometry"/>
                </mxCell>
                <mxCell id="34" value="1" style="edgeLabel;html=1;align=center;verticalAlign=middle;resizable=0;points=[];" parent="13" vertex="1" connectable="0">
                    <mxGeometry x="-0.1149" relative="1" as="geometry">
                        <mxPoint as="offset"/>
                    </mxGeometry>
                </mxCell>
                <mxCell id="11" value="events.orders.payments-service&lt;br&gt;&lt;div&gt;&lt;br&gt;&lt;/div&gt;&lt;div&gt;durable: true&lt;/div&gt;" style="rounded=0;whiteSpace=wrap;html=1;" parent="1" vertex="1">
                    <mxGeometry x="330" y="680" width="260" height="60" as="geometry"/>
                </mxCell>
                <mxCell id="20" style="edgeStyle=none;html=1;" parent="1" source="14" target="4" edge="1">
                    <mxGeometry relative="1" as="geometry"/>
                </mxCell>
                <mxCell id="21" value="2" style="edgeLabel;html=1;align=center;verticalAlign=middle;resizable=0;points=[];" parent="20" vertex="1" connectable="0">
                    <mxGeometry x="0.0881" y="-4" relative="1" as="geometry">
                        <mxPoint as="offset"/>
                    </mxGeometry>
                </mxCell>
                <mxCell id="14" value="req.orders-service.create-order" style="rounded=0;whiteSpace=wrap;html=1;" parent="1" vertex="1">
                    <mxGeometry x="320" y="390" width="260" height="60" as="geometry"/>
                </mxCell>
                <mxCell id="22" value="orders,&amp;nbsp;&lt;div&gt;outbox&lt;/div&gt;" style="shape=cylinder3;whiteSpace=wrap;html=1;boundedLbl=1;backgroundOutline=1;size=15;" parent="1" vertex="1">
                    <mxGeometry x="830" y="340" width="57" height="80" as="geometry"/>
                </mxCell>
                <mxCell id="23" style="edgeStyle=none;html=1;entryX=0;entryY=0;entryDx=0;entryDy=52.5;entryPerimeter=0;" parent="1" source="4" target="22" edge="1">
                    <mxGeometry relative="1" as="geometry">
                        <mxPoint x="830" y="370" as="targetPoint"/>
                    </mxGeometry>
                </mxCell>
                <mxCell id="24" value="3" style="edgeLabel;html=1;align=center;verticalAlign=middle;resizable=0;points=[];" parent="23" vertex="1" connectable="0">
                    <mxGeometry x="-0.1619" y="1" relative="1" as="geometry">
                        <mxPoint x="1" as="offset"/>
                    </mxGeometry>
                </mxCell>
                <mxCell id="38" style="edgeStyle=none;html=1;" parent="1" source="29" target="4" edge="1">
                    <mxGeometry relative="1" as="geometry"/>
                </mxCell>
                <mxCell id="29" value="&lt;span&gt;&lt;font style=&quot;color: light-dark(rgb(0, 0, 0), rgb(255, 255, 255));&quot;&gt;events.payments.orders-service&lt;/font&gt;&lt;/span&gt;&lt;div style=&quot;scrollbar-color: rgb(75, 75, 75) rgb(27, 29, 30); color: rgb(192, 192, 192);&quot;&gt;&lt;font style=&quot;color: light-dark(rgb(0, 0, 0), rgb(255, 255, 255));&quot;&gt;durable: false&lt;/font&gt;&lt;/div&gt;" style="rounded=0;whiteSpace=wrap;html=1;" parent="1" vertex="1">
                    <mxGeometry x="790" y="820" width="260" height="60" as="geometry"/>
                </mxCell>
                <mxCell id="37" style="edgeStyle=none;html=1;entryX=0.5;entryY=1;entryDx=0;entryDy=0;exitX=1;exitY=0.75;exitDx=0;exitDy=0;" parent="1" source="5" target="29" edge="1">
                    <mxGeometry relative="1" as="geometry">
                        <mxPoint x="500.3571428571431" y="1130" as="sourcePoint"/>
                    </mxGeometry>
                </mxCell>
                <mxCell id="46" value="3" style="edgeLabel;html=1;align=center;verticalAlign=middle;resizable=0;points=[];" parent="37" vertex="1" connectable="0">
                    <mxGeometry x="-0.6313" y="5" relative="1" as="geometry">
                        <mxPoint as="offset"/>
                    </mxGeometry>
                </mxCell>
                <mxCell id="40" style="edgeStyle=none;html=1;exitX=0.5;exitY=1;exitDx=0;exitDy=0;" parent="1" source="5" target="39" edge="1">
                    <mxGeometry relative="1" as="geometry">
                        <Array as="points">
                            <mxPoint x="190" y="1070"/>
                        </Array>
                        <mxPoint x="460" y="1080" as="sourcePoint"/>
                        <mxPoint x="73" y="800" as="targetPoint"/>
                    </mxGeometry>
                </mxCell>
                <mxCell id="47" value="4" style="edgeLabel;html=1;align=center;verticalAlign=middle;resizable=0;points=[];" parent="40" vertex="1" connectable="0">
                    <mxGeometry x="-0.485" y="-1" relative="1" as="geometry">
                        <mxPoint x="1" as="offset"/>
                    </mxGeometry>
                </mxCell>
                <mxCell id="32" value="processed_orders,&lt;div&gt;outbox&lt;/div&gt;" style="shape=cylinder3;whiteSpace=wrap;html=1;boundedLbl=1;backgroundOutline=1;size=15;" parent="1" vertex="1">
                    <mxGeometry x="260" y="910" width="60" height="80" as="geometry"/>
                </mxCell>
                <mxCell id="35" style="edgeStyle=none;html=1;entryX=1;entryY=0.5;entryDx=0;entryDy=0;entryPerimeter=0;" parent="1" source="5" target="32" edge="1">
                    <mxGeometry relative="1" as="geometry"/>
                </mxCell>
                <mxCell id="36" value="2" style="edgeLabel;html=1;align=center;verticalAlign=middle;resizable=0;points=[];" parent="35" vertex="1" connectable="0">
                    <mxGeometry x="-0.1591" y="-2" relative="1" as="geometry">
                        <mxPoint as="offset"/>
                    </mxGeometry>
                </mxCell>
                <mxCell id="41" style="edgeStyle=none;html=1;entryX=0;entryY=0.75;entryDx=0;entryDy=0;" parent="1" source="39" target="3" edge="1">
                    <mxGeometry relative="1" as="geometry">
                        <Array as="points">
                            <mxPoint x="20" y="540"/>
                        </Array>
                    </mxGeometry>
                </mxCell>
                <mxCell id="39" value="events.payments.gateway&lt;div&gt;durable: false&lt;/div&gt;" style="rounded=0;whiteSpace=wrap;html=1;" parent="1" vertex="1">
                    <mxGeometry x="-70" y="680" width="260" height="60" as="geometry"/>
                </mxCell>
            </root>
        </mxGraphModel>
    </diagram>
</mxfile>